<?xml version="1.0" encoding="UTF-8"?>
<!DOCTYPE svg PUBLIC "-//W3C//DTD SVG 1.1//EN" "http://www.w3.org/Graphics/SVG/1.1/DTD/svg11.dtd">
<!-- Creator: CorelDRAW 2021 (64-Bit) -->
<svg xmlns="http://www.w3.org/2000/svg" xml:space="preserve" width="159px" height="40px" version="1.1" style="shape-rendering:geometricPrecision; text-rendering:geometricPrecision; image-rendering:optimizeQuality; fill-rule:evenodd; clip-rule:evenodd"
viewBox="0 0 2.9 0.72"
 xmlns:xlink="http://www.w3.org/1999/xlink"
 xmlns:xodm="http://www.corel.com/coreldraw/odm/2003">
 <defs>
  <style type="text/css">
   <![CDATA[
    .fil0 {fill:white;fill-rule:nonzero}
   ]]>
  </style>
 </defs>
 <g id="Layer_x0020_1">
  <metadata id="CorelCorpID_0Corel-Layer"/>
  <path class="fil0" d="M0.92 0.23l0.07 -0.23 -0.76 0 -0.23 0.72 0.27 0 0.06 -0.19 0.43 0 0.07 -0.22 -0.43 0 0.02 -0.08 0.5 0zm0.22 0.27l0.15 -0.5 -0.27 0 -0.22 0.72 0.74 0 0.07 -0.22 -0.47 0zm1.13 0.22l0.29 0 -0.07 -0.72 -0.4 0 -0.53 0.72 0.3 0 0.09 -0.13 0.31 0 0.01 0.13zm-0.19 -0.31l0.15 -0.22 0.02 0.22 -0.17 0zm0.57 0.13l-0.06 0.18 0.25 0 0.06 -0.18 -0.25 0z"/>
 </g>
</svg>
