<?xml version="1.0" encoding="UTF-8"?>
<!DOCTYPE svg PUBLIC "-//W3C//DTD SVG 1.1//EN" "http://www.w3.org/Graphics/SVG/1.1/DTD/svg11.dtd">
<!-- Creator: CorelDRAW 2021 (64-Bit) -->
<svg xmlns="http://www.w3.org/2000/svg" xml:space="preserve" width="309px" height="77px" version="1.1" style="shape-rendering:geometricPrecision; text-rendering:geometricPrecision; image-rendering:optimizeQuality; fill-rule:evenodd; clip-rule:evenodd"
viewBox="0 0 10.92 2.73"
 xmlns:xlink="http://www.w3.org/1999/xlink"
 xmlns:xodm="http://www.corel.com/coreldraw/odm/2003">
 <defs>
  <style type="text/css">
   <![CDATA[
    .fil0 {fill:black;fill-rule:nonzero}
    .fil1 {fill:#375EC1;fill-rule:nonzero}
   ]]>
  </style>
 </defs>
 <g id="Layer_x0020_1">
  <metadata id="CorelCorpID_0Corel-Layer"/>
  <path class="fil0" d="M3.47 0.86l0.27 -0.86 -2.89 0 -0.85 2.73 1.01 0 0.23 -0.72 1.64 0 0.26 -0.86 -1.63 0 0.09 -0.29 1.87 0zm0.81 1.01l0.59 -1.87 -1.01 0 -0.86 2.73 2.81 0 0.27 -0.86 -1.8 0zm4.26 0.86l1.11 0 -0.28 -2.73 -1.5 0 -1.98 2.73 1.11 0 0.34 -0.49 1.16 0 0.04 0.49zm-0.71 -1.19l0.57 -0.84 0.06 0.84 -0.63 0z"/>
  <polygon id="_1" class="fil1" points="9.99,2.03 9.77,2.73 10.7,2.73 10.92,2.03 "/>
 </g>
</svg>
